<svg xmlns="http://www.w3.org/2000/svg" xmlns:xlink="http://www.w3.org/1999/xlink" version="1.2" baseProfile="tiny" id="Medicamento" x="0px" y="0px" width="100px" height="100px" viewBox="0 0 100 100" overflow="inherit" xml:space="preserve">
<path fill-rule="evenodd" d="M54.833,21.162c0,1.482,0,2.963,0,4.446c1.31,0.135,2.656,0.401,3.408,1.097  c0.152,0.14,0.414,0.432,0.446,0.651c0.063,0.45-0.035,1.011-0.03,1.542c0.08,7.605,0.05,39.651,0,47.657  c-0.508,0.783-1.349,1.238-2.163,1.717c0.332,0.48,0.826,1.041,0.622,1.957c-0.366,1.648-2.522,2.717-4.001,3.318  c-1.782,0.725-3.713,1.242-5.661,1.633c-7.837,1.57-19.002,1.533-26.821-0.092c-2.882-0.598-5.871-1.459-7.914-3.053  c-0.769-0.598-1.585-1.479-1.333-2.607c0.109-0.494,0.365-0.795,0.652-1.156c-0.845-0.459-1.675-0.934-2.193-1.717  c-0.051-9.854,0-42.039,0-47.717c0-0.534-0.086-1.095,0-1.482c0.144-0.651,0.89-1.042,1.512-1.273  c0.708-0.263,1.456-0.411,2.312-0.445c0-1.481,0-2.964,0-4.446c-0.833-0.088-1.562-0.225-2.252-0.475  c-0.637-0.229-1.407-0.608-1.571-1.275c-0.12-0.484,0.001-1.339-0.03-1.984c-0.064-1.374,0-2.778,0-4.09  c0-0.696-0.104-1.652,0.09-2.252c0.479-1.494,2.568-2.425,4.03-2.995c3.32-1.289,7.438-2.011,11.617-2.398  c2.157-0.2,4.434-0.285,6.609-0.386c2.458-0.114,5.458,0.001,7.765,0.147c4.821,0.306,9.432,0.928,13.456,2.225  c1.899,0.61,4.011,1.462,4.949,2.875c0.151,0.231,0.32,0.556,0.355,0.858c0.074,0.677,0,1.369,0,2.016c0,1.578-0.03,3.37-0.03,4.979  c0,0.348,0.05,0.748,0,0.979c-0.139,0.641-0.88,1.074-1.481,1.303C56.44,20.997,55.783,21.077,54.833,21.162z M69.588,86.073  c-4.531-0.172-8.947,0.318-12.714,1.156c-1.091,0.242-2.813,0.598-3.112,1.541c-0.185,0.58-0.031,1.6-0.031,2.4  c0,0.727-0.086,1.791,0.15,2.283c0.236,0.498,1.338,0.85,2.045,1.064c2.444,0.754,5.812,0.459,8.533,0.211  c2.878-0.266,5.711-0.465,8.033-1.305c0.989-0.359,2.138-0.684,2.282-1.719c-0.014-1.701,0.221-3.199-0.78-4.193  C73.092,86.614,71.03,86.14,69.588,86.073z M76.824,84.515c4.291,1.473,8.658,2.271,12.508,2.555  c1.114,0.082,2.866,0.234,3.423-0.58c0.346-0.502,0.491-1.523,0.722-2.293c0.208-0.693,0.598-1.688,0.512-2.229  c-0.081-0.543-1.034-1.197-1.648-1.609c-2.128-1.422-5.436-2.109-8.113-2.654c-2.833-0.574-5.602-1.197-8.071-1.061  c-1.051,0.059-2.243,0.037-2.678,0.99c-0.477,1.631-1.133,3-0.461,4.24C73.622,82.995,75.46,84.04,76.824,84.515z"/>
</svg>