<svg xmlns="http://www.w3.org/2000/svg" xmlns:xlink="http://www.w3.org/1999/xlink" version="1.1" id="Capa_1" x="0px" y="0px" width="100px" height="100px" viewBox="0 0 100 100" enable-background="new 0 0 100 100" xml:space="preserve">
<g>
	<path fill="#000000" d="M46.285,42.266l-2.192-2.085c0.273-1.262,0.42-2.57,0.42-3.912c0-0.641-0.032-1.274-0.097-1.898   l2.417-1.834l-1.389-4.59l-3.024-0.204c-1.027-1.966-2.396-3.726-4.03-5.199l0.565-2.988l-4.108-2.474l-2.374,1.872   c-1.794-0.669-3.719-1.064-5.725-1.14l-1.473-2.65l-4.74,0.725l-0.629,2.959c-1.855,0.655-3.574,1.599-5.106,2.776l-2.835-1.099   l-3.181,3.59l1.411,2.675c-0.986,1.641-1.721,3.449-2.16,5.37l-2.879,0.964L5,37.918l2.779,1.154   c0.303,1.981,0.925,3.855,1.805,5.578l-1.596,2.589l2.951,3.781l2.89-0.901c1.454,1.284,3.109,2.344,4.915,3.123l0.43,3.011   l4.687,1.016l1.642-2.536c0.178,0.006,0.357,0.014,0.537,0.014c1.817,0,3.572-0.268,5.231-0.759l2.254,2.041l4.256-2.213   l-0.358-3.01c1.532-1.201,2.87-2.636,3.958-4.256l3.039,0.134L46.285,42.266z M25.884,48.594c-6.836,0-12.378-5.542-12.378-12.378   c0-6.836,5.542-12.378,12.378-12.378c6.836,0,12.378,5.542,12.378,12.378C38.262,43.052,32.721,48.594,25.884,48.594z"/>
	<path fill="#000000" d="M68.528,43.893c-8.002,0-14.511,6.509-14.511,14.511c0,8.002,6.509,14.511,14.511,14.511   s14.511-6.51,14.511-14.511C83.039,50.403,76.53,43.893,68.528,43.893z M68.528,70.5c-6.68,0-12.096-5.416-12.096-12.096   c0-6.68,5.415-12.096,12.096-12.096s12.096,5.415,12.096,12.096C80.624,65.084,75.208,70.5,68.528,70.5z"/>
	<path fill="#000000" d="M95,58.181l-2.011-0.953c-0.083-1.834-0.371-3.614-0.836-5.321l1.638-1.538l-1.862-4.422l-2.242,0.084   c-1.062-1.822-2.349-3.5-3.829-4.985l0.665-2.147l-3.802-2.922l-1.907,1.179c-1.543-0.902-3.191-1.642-4.925-2.192l-0.407-2.206   l-4.727-0.825l-1.132,1.916c-0.377-0.017-0.754-0.028-1.134-0.028c-1.449,0-2.865,0.134-4.245,0.375l-1.381-1.773l-4.573,1.446   l-0.122,2.237c-1.638,0.764-3.178,1.703-4.597,2.793l-2.047-0.934l-3.386,3.396l0.926,2.04c-1.089,1.412-2.027,2.945-2.792,4.576   l-2.247,0.117l-1.435,4.575l1.759,1.38c-0.249,1.397-0.385,2.831-0.385,4.298c0,0.362,0.013,0.722,0.028,1.08l-1.929,1.132   l0.836,4.724l2.192,0.412c0.547,1.735,1.284,3.383,2.182,4.929l-1.19,1.909l2.931,3.795l2.136-0.653   c1.269,1.27,2.681,2.395,4.201,3.365l-0.176,2.245l4.354,2.016l1.592-1.562c1.686,0.533,3.452,0.882,5.273,1.037l0.874,2.06   l4.791-0.219l0.693-2.122c1.801-0.318,3.538-0.826,5.182-1.515l1.735,1.422l4.141-2.418l-0.374-2.21   c1.422-1.094,2.72-2.341,3.871-3.716l2.202,0.466l2.563-4.053l-1.347-1.789c0.754-1.616,1.338-3.327,1.725-5.11l2.158-0.608   L95,58.181z M68.528,75.373c-9.356,0-16.968-7.612-16.968-16.968s7.612-16.968,16.968-16.968c9.357,0,16.968,7.611,16.968,16.968   C85.496,67.762,77.884,75.373,68.528,75.373z"/>
</g>
</svg>