<?xml version="1.0" encoding="utf-8"?>
<!-- Generator: Adobe Illustrator 15.1.0, SVG Export Plug-In . SVG Version: 6.00 Build 0)  -->
<!DOCTYPE svg PUBLIC "-//W3C//DTD SVG 1.1//EN" "http://www.w3.org/Graphics/SVG/1.1/DTD/svg11.dtd">
<svg version="1.1" xmlns="http://www.w3.org/2000/svg" xmlns:xlink="http://www.w3.org/1999/xlink" x="0px" y="0px"
	 width="77.185px" height="100px" viewBox="-9.872 -26.564 77.185 100" enable-background="new -9.872 -26.564 77.185 100"
	 xml:space="preserve">
<g id="Layer_1">
	<path fill="#231F20" d="M67.313-13.915c0-6.987-5.664-12.65-12.65-12.65s-12.649,5.663-12.649,12.65
		c0,5.862,3.993,10.779,9.403,12.214c-2.239,3.264-4.478,6.528-6.717,9.793c-1.971-2.499-3.941-4.999-5.914-7.498
		c2.729-4.105,3.025-9.279-0.793-13.098c-3.565-3.565-10.738-4.253-14.189,0C13.532,0.158,3.26,12.819-7.012,25.48
		c-3.442,4.243-4.166,10.024,0,14.19c2.023,2.022,5.208,3.115,8.215,2.908h40.982c1.472,8.871,2.945,17.744,4.418,26.615
		c1.234,7.434,12.513,4.271,11.287-3.111c-1.939-11.688-3.881-23.375-5.82-35.062c-0.482-2.907-2.503-4.188-4.709-4.235v-0.002
		h-0.119c-0.062,0-0.123-0.002-0.186,0H17.633c4.207-5.185,8.412-10.37,12.619-15.554c2.634,3.339,5.267,6.677,7.899,10.016
		c2.262,2.868,7.109,2.35,9.46,0c0.469-0.469,0.835-0.966,1.124-1.481c0.207-0.216,0.406-0.45,0.589-0.718
		c4.064-5.925,8.129-11.852,12.193-17.778c1.183-1.725,1.076-3.413,0.273-4.733C65.124-5.744,67.313-9.573,67.313-13.915z"/>
</g>
<g id="Layer_2">
</g>
</svg>
