<svg xmlns="http://www.w3.org/2000/svg" xmlns:xlink="http://www.w3.org/1999/xlink" version="1.1" id="Layer_1" x="0px" y="0px" width="100px" height="100px" viewBox="0 0 100 100" enable-background="new 0 0 100 100" xml:space="preserve">
<path d="M64.041,67.156c-0.938-0.938-2.17-1.409-3.4-1.409s-2.461,0.471-3.398,1.409l-4.859,4.859l0,0l-4.859,4.857  c-1.878,1.876-1.878,4.922,0.001,6.8c1.876,1.877,4.922,1.877,6.799,0l3.822-3.822l5.895-5.895  C65.918,72.078,65.918,69.032,64.041,67.156z M63.008,72.922l-4.861,4.857l-4.729-4.729l4.859-4.858  c0.631-0.632,1.471-0.98,2.363-0.98c0.895,0,1.734,0.349,2.367,0.98C64.309,69.494,64.309,71.617,63.008,72.922z"/>
<path d="M41.307,53.735c-1.327-0.001-2.531,0.537-3.401,1.408c-0.87,0.87-1.407,2.072-1.406,3.399l-0.001,6.872l0,0v6.87  c-0.002,2.654,2.152,4.809,4.809,4.808c2.653,0.001,4.808-2.153,4.808-4.808v-5.406v-8.336  C46.115,55.888,43.96,53.734,41.307,53.735z M44.652,58.543l-0.001,6.872l-6.688-0.001l0.001-6.872  c-0.001-0.893,0.347-1.733,0.978-2.363c0.632-0.633,1.474-0.98,2.367-0.98C43.15,55.199,44.651,56.7,44.652,58.543z"/>
<path d="M45.866,45.476c-0.939,0.938-1.41,2.17-1.41,3.401c0.001,1.23,0.471,2.461,1.41,3.398l4.859,4.859l0,0l4.857,4.859  c1.875,1.877,4.922,1.877,6.799-0.002c1.877-1.875,1.877-4.922,0-6.799l-3.822-3.822l-5.895-5.896  C50.787,43.599,47.741,43.599,45.866,45.476z M51.629,46.51l4.859,4.861L51.76,56.1L46.9,51.24c-0.632-0.631-0.98-1.471-0.979-2.363  c-0.001-0.895,0.349-1.735,0.98-2.367C48.204,45.208,50.327,45.208,51.629,46.51z"/>
<g>
	<path d="M60.936,16.766c0.002,0,0.004-0.001,0.006-0.001h1.377c0.391,0,0.715-0.319,0.715-0.71V3.751   c0-0.391-0.324-0.713-0.715-0.713H37.685c-0.392,0-0.715,0.322-0.715,0.713v12.305c0,0.391,0.323,0.71,0.715,0.71h9.825h3.037   H60.936z"/>
	<path d="M74.885,39.615c0,0-1.768-6.317-7.094-10.517c-1.342-1.061-2.434-1.996-3.33-2.83l0.016,0.008   c-0.033-0.026-0.064-0.057-0.098-0.084c-0.428-0.4-0.812-0.777-1.156-1.133c-1.826-2.106-2.479-4.538-2.479-4.538   c-0.1-0.379-0.504-0.685-0.893-0.685h-1.986h-7.25h-0.55h0.03H40.76c-0.39,0-0.794,0.32-0.894,0.699c0,0-0.936,3.519-3.732,5.755   c-2.806,2.245-11.214,6.729-11.214,15.132v45.8v1.423c0,0,0,8.256,9.806,8.256h32.35c0.391,0,1.031,0.021,1.424,0.058   c0,0,6.58,0.507,6.58-10.145v-45.8C75.08,40.621,74.99,39.992,74.885,39.615z M67.939,83.411c0,0.392-0.133,1.006-0.289,1.358   l-1.914,1.915c-0.354,0.162-0.967,0.29-1.359,0.29H36.812c-0.392,0-1.002-0.128-1.361-0.29l-1.903-1.915   c-0.162-0.353-0.292-0.968-0.292-1.358V42.793c0-0.391,0.129-1.003,0.292-1.36l1.903-1.909c0.359-0.164,0.971-0.292,1.361-0.292   h27.565c0.393,0,1.006,0.128,1.357,0.292l1.912,1.909c0.16,0.357,0.293,0.971,0.293,1.36V83.411z"/>
</g>
</svg>