<svg xmlns="http://www.w3.org/2000/svg" xmlns:xlink="http://www.w3.org/1999/xlink" version="1.1" id="Layer_1" x="0px" y="0px" width="94.34px" height="100px" viewBox="0 0 94.34 100" enable-background="new 0 0 94.34 100" xml:space="preserve">
<g>
	<path d="M87.573,83.701l-3.248,3.96l0.938,0.997c0.729,0.773,1.945,0.812,2.721,0.083l0.895-0.843   c0.775-0.729,0.813-1.945,0.084-2.719L87.573,83.701z"/>
	<polygon points="85.886,81.905 82.636,85.865 83.474,86.756 86.722,82.797  "/>
	<polygon points="84.302,80.222 81.054,84.182 81.786,84.961 85.034,81.001  "/>
	<g>
		<path d="M71.987,67.132c-0.43-0.457-1.029-0.654-1.607-0.593c-0.072-0.009-0.145-0.013-0.219-0.013h-0.488H66.46H47.473    l-1.625-10.403l-0.284-1.819l9.54-1.491l7.743-1.21c0.847-0.132,1.428-0.926,1.295-1.774l-0.154-0.982    c-0.131-0.847-0.926-1.427-1.774-1.295L44.93,50.252l-0.872-5.591c-0.165-1.05-1.149-1.767-2.199-1.604l-1.216,0.189    c-1.05,0.164-1.767,1.147-1.604,2.197l1.52,9.726c-5.697,3.453-9.504,9.711-9.504,16.858c0,10.88,8.82,19.698,19.699,19.698    c10.59,0,19.227-8.356,19.68-18.834l9.77,10.386l3.248-3.959L71.987,67.132z M50.754,88.67c-9.19,0-16.641-7.451-16.641-16.642    c0-5.581,2.75-10.517,6.966-13.536l1.786,11.433c0.156,1,1.057,1.696,2.048,1.618c0.152,0.038,0.309,0.062,0.472,0.062h22.001    c0.004,0.142,0.01,0.281,0.01,0.424C67.396,81.219,59.944,88.67,50.754,88.67z"/>
		<circle cx="39.879" cy="35.286" r="6.002"/>
	</g>
</g>
<g>
	<path d="M12,30.488l1.559,26.449c0,1.534,1.109,2.808,2.568,3.068c-0.018,0.135-0.031,0.271-0.031,0.409v28.405   c0,1.605,1.301,2.907,2.906,2.907c0.102,0,0.201-0.007,0.299-0.016h6.281c1.605,0,2.906,0.259,2.906-1.348   c0-1.605-1.301-2.907-2.906-2.907l-3.674-0.871V60.414c0-0.16-0.016-0.315-0.039-0.468c1.33-0.355,2.313-1.565,2.313-3.01   l-0.176-12.304l7.295,8.408c0.979,1.13,2.689,1.251,3.82,0.271c1.129-0.98,1.25-2.69,0.271-3.82L23.887,36.228l-0.053-3.746   l-8.715-5.112C13.396,27.37,12,28.766,12,30.488z"/>
	<circle cx="19.004" cy="20.434" r="6.012"/>
</g>
</svg>