<svg xmlns="http://www.w3.org/2000/svg" xmlns:xlink="http://www.w3.org/1999/xlink" version="1.1" id="Layer_1" x="0px" y="0px" width="94.445px" height="100px" viewBox="0 0 94.445 100" enable-background="new 0 0 94.445 100" xml:space="preserve">
<g>
	<path d="M83.331,16.669c4.596,0,8.336-3.735,8.336-8.332c0-4.606-3.74-8.337-8.336-8.337C78.734,0,75,3.731,75,8.337   C75,12.934,78.734,16.669,83.331,16.669z"/>
	<circle cx="20.833" cy="8.333" r="8.333"/>
	<path d="M31.944,19.444H20.833H9.722C3.339,19.444,0,24.335,0,29.167v25h1.389c0,2.302,1.867,4.166,4.167,4.166   c1.071,0,2.04-0.416,2.778-1.081v10.804h1.389v27.083c0,2.685,2.176,4.861,4.861,4.861s4.861-2.177,4.861-4.861   c0-0.004-0.001-0.01-0.001-0.014l0.001-27.069h1.389h1.389l0.001,27.069c0,0.004-0.001,0.01-0.001,0.014   c0,2.685,2.176,4.861,4.861,4.861s4.861-2.177,4.861-4.861V68.056h1.389V57.252c0.738,0.665,1.706,1.081,2.777,1.081   c2.301,0,4.167-1.864,4.167-4.166h1.389v-25C41.667,24.335,38.327,19.444,31.944,19.444z M38.889,54.167h-5.555V31.944   c0-0.768-0.622-1.389-1.389-1.389s-1.389,0.621-1.389,1.389v33.333h-9.722h-9.723V31.944c0-0.768-0.621-1.389-1.389-1.389   s-1.389,0.621-1.389,1.389v22.223H2.778v-25c0-3.345,2.173-6.944,6.944-6.944h5.903v6.944c0,0.57-0.903,1.59-1.569,2.119   c-1.208,0.991-1.208,1.964-1.208,3.437v4.167c0,0.575,0.467,1.042,1.042,1.042c0.575,0,1.042-0.467,1.042-1.042v-4.167   c0-1.378,0.025-1.48,0.43-1.812c0.194-0.153,0.772-0.631,1.306-1.293c0.531,0.659,1.104,1.134,1.29,1.28   c0.421,0.345,0.446,0.448,0.446,1.826v4.167c0,0.575,0.466,1.042,1.042,1.042s1.042-0.467,1.042-1.042v-4.167   c0-1.473,0-2.446-1.223-3.448c-0.652-0.517-1.554-1.537-1.554-2.107v-6.944h3.125h3.125v6.539c-0.62,0.361-1.042,1.025-1.042,1.794   c0,1.15,0.933,2.083,2.083,2.083c1.15,0,2.083-0.933,2.083-2.083c0-0.769-0.422-1.433-1.042-1.794v-6.539h5.903   c4.771,0,6.944,3.6,6.944,6.944V54.167z"/>
	<path d="M75,56.944h6.98c-0.882-1.164-1.425-2.598-1.425-4.167V29.167h2.778v23.611c0,2.302,1.866,4.167,4.166,4.167   c2.301,0,4.167-1.865,4.167-4.167V29.167v-1.389c0-4.602-3.731-8.333-8.333-8.333c-4.603,0-8.334,3.731-8.334,8.333V50H60.417   c-2.685,0-4.861,2.177-4.861,4.861v24.306h0.071c0.339,2.352,2.344,4.166,4.79,4.166c0.237,0,0.467-0.031,0.694-0.063V63.889   c0-3.829,3.115-6.944,6.944-6.944H75z"/>
	<path d="M90.278,59.723H68.055c-2.302,0-4.166,1.864-4.166,4.166V100h30.556V63.889C94.445,61.587,92.58,59.723,90.278,59.723z"/>
</g>
</svg>