<svg xmlns="http://www.w3.org/2000/svg" xmlns:xlink="http://www.w3.org/1999/xlink" version="1.1" id="Layer_1" x="0px" y="0px" width="100px" height="91.665px" viewBox="0 0 100 91.665" enable-background="new 0 0 100 91.665" xml:space="preserve">
<g>
	<path fill="#000000" d="M41.667,48.609c-0.768,0-1.389,0.621-1.389,1.389v15.278c0,0.768,0.621,1.389,1.389,1.389   c0.768,0,1.389-0.621,1.389-1.389V49.998C43.056,49.23,42.435,48.609,41.667,48.609z"/>
	<path fill="#000000" d="M86.111,47.221H47.222c-0.768,0-1.389,0.621-1.389,1.389s0.621,1.389,1.389,1.389h38.889   c0.768,0,1.389-0.621,1.389-1.389S86.879,47.221,86.111,47.221z"/>
	<path fill="#000000" d="M34.193,50.103l-23.611,9.723c-0.709,0.292-1.047,1.104-0.755,1.813c0.221,0.536,0.739,0.859,1.285,0.859   c0.176,0,0.355-0.033,0.529-0.104l23.611-9.722c0.709-0.292,1.047-1.104,0.756-1.813C35.715,50.149,34.905,49.815,34.193,50.103z"/>
	<path fill="#000000" d="M99.665,24.75L78.832,0.483c-0.243-0.284-0.591-0.456-0.962-0.481c-0.372-0.017-0.738,0.102-1.018,0.35   l-30.75,27.425h-4.437c-0.375,0-0.749,0.076-1.094,0.225L1.683,44.668C0.662,45.105,0,46.11,0,47.221v41.667   c0,0.933,0.469,1.805,1.249,2.319c0.46,0.304,0.993,0.458,1.529,0.458c0.372,0,0.743-0.074,1.095-0.225l38.364-16.442h52.208   c1.534,0,2.777-1.243,2.777-2.777V33.332h-5.176l7.486-6.638C100.101,26.191,100.158,25.325,99.665,24.75z M91.667,69.443h-50   c-0.375,0-0.749,0.075-1.094,0.225L5.556,84.675V49.052L37.69,35.281L25.464,46.185c-0.237,0.211-0.378,0.491-0.433,0.785   l-14.446,5.909c-0.709,0.291-1.05,1.102-0.76,1.812c0.22,0.537,0.739,0.862,1.286,0.862c0.175,0,0.354-0.032,0.526-0.103   l30.302-12.397h44.172c0.768,0,1.389-0.621,1.389-1.389c0-0.768-0.621-1.389-1.389-1.389h-1.896l7.452-6.608V69.443z    M89.665,30.554l-1.721-1.689c-2.576,1.654-6.049,1.374-8.325-0.857l2.092-2.129c1.088,1.067,2.669,1.328,4.003,0.795l-5.213-5.12   c-2.578,1.652-6.053,1.373-8.33-0.863c-2.274-2.235-2.612-5.702-1.007-8.311l-1.72-1.688l2.092-2.128l1.718,1.69   c2.579-1.653,6.054-1.374,8.332,0.863l-2.091,2.13c-1.091-1.07-2.675-1.334-4.01-0.801l5.225,5.131   c2.577-1.65,6.047-1.381,8.318,0.853c2.274,2.234,2.612,5.701,1.008,8.308l1.72,1.688L89.665,30.554z"/>
	<path fill="#000000" d="M82.939,19.767l4.864,4.78c0.51-1.343,0.223-2.92-0.865-3.989C85.852,19.491,84.271,19.233,82.939,19.767z"/>
	<path fill="#000000" d="M74.262,18.562c1.091,1.071,2.675,1.332,4.009,0.801l-4.877-4.791   C72.884,15.915,73.173,17.493,74.262,18.562z"/>
</g>
</svg>