<svg xmlns="http://www.w3.org/2000/svg" xmlns:xlink="http://www.w3.org/1999/xlink" version="1.1" id="Layer_16" x="0px" y="0px" width="48px" height="48px" viewBox="0 0 48 48" enable-background="new 0 0 48 48" xml:space="preserve">
<path fill="#000000" d="M41.389,38.111c-0.004-0.145-0.072-0.279-0.187-0.367c-0.113-0.088-0.261-0.118-0.402-0.088  c-0.052,0.013-5.258,1.229-7.315,1.671c-0.242,0.052-0.405,0.282-0.375,0.528c0.045,0.357,0.101,0.682,0.104,0.696  c0.188,0.927,1.15,0.927,1.469,0.927l0.287-0.002c0,0,4.393-0.152,4.762-0.164C41.414,41.266,41.396,38.436,41.389,38.111z"/>
<path fill="#000000" d="M6.568,38.111c0.004-0.145,0.072-0.279,0.187-0.367c0.113-0.088,0.261-0.118,0.402-0.088  c0.052,0.013,5.258,1.229,7.315,1.671c0.243,0.052,0.406,0.282,0.375,0.528c-0.045,0.357-0.1,0.682-0.103,0.696  c-0.187,0.927-1.151,0.927-1.468,0.927l-0.288-0.002c0,0-4.393-0.152-4.761-0.164C6.543,41.266,6.562,38.436,6.568,38.111z"/>
<path fill="#000000" d="M43.232,19.205c-0.422-1-1.574-1.468-2.573-1.047l1.528,3.62C43.186,21.355,43.654,20.203,43.232,19.205z"/>
<path fill="#000000" d="M5.924,21.778l1.528-3.62c-0.999-0.421-2.152,0.047-2.574,1.047C4.457,20.203,4.926,21.355,5.924,21.778z"/>
<path fill="#000000" d="M23.963,19.296c2.243,0,13.533-0.098,15.489-2.035l0.213-0.211L37.23,8.854  c-0.805-2.503-2.283-3.881-4.166-3.881H14.966c-1.857,0-3.416,1.453-4.17,3.89l-2.469,8.172l0.194,0.21  C10.322,19.197,21.7,19.296,23.963,19.296z M11.752,9.154c0.231-0.746,1.146-3.182,3.214-3.182h18.099  c1.906,0,2.834,1.997,3.213,3.177l2.248,7.57c-1.512,0.923-7.446,1.576-14.562,1.576c-0.505,0-0.999-0.003-1.481-0.009  c-0.811-1.391-2.547-2.352-4.56-2.352c-1.744,0-3.274,0.728-4.182,1.823c-2.21-0.284-3.677-0.65-4.276-1.027L11.752,9.154z"/>
<path fill="#000000" d="M24.49,30.4c0,0.279-0.22,0.5-0.5,0.5c-0.27,0-0.49-0.221-0.49-0.5c0-0.271,0.22-0.49,0.49-0.49  C24.27,29.91,24.49,30.13,24.49,30.4z"/>
<path fill="#000000" d="M43.18,26.9L39.99,18.51c-0.09-0.24-0.36-0.37-0.61-0.3c-3.34,0.99-9.14,1.59-15.51,1.59  c-6.29,0-11.97-0.6-15.2-1.59c-0.25-0.08-0.52,0.05-0.62,0.3L4.82,26.9c-0.03,0.08-0.04,0.17-0.03,0.26l0.23,1.5  c0,1.85,13.54,3.96,19.07,3.96c5.48,0,18.87-2.11,18.87-3.88l0.25-1.58C43.22,27.07,43.21,26.98,43.18,26.9z M23.99,31.4  c-0.54,0-0.99-0.45-0.99-1c0-0.54,0.45-0.99,0.99-0.99c0.55,0,1,0.45,1,0.99C24.99,30.95,24.54,31.4,23.99,31.4z"/>
<path fill="#000000" d="M42.566,29.9c-0.276,0-0.5,0.224-0.5,0.5v1.089l-4.211,0.313c-1.256,0.104-2.207,1.049-2.119,2.106  c0.043,0.528,0.332,1,0.812,1.327c0.396,0.271,0.885,0.412,1.395,0.412c0.076,0,0.15-0.002,0.228-0.008l3.896-0.32v0.312  c-1.795,1.07-13.047,2.964-17.84,2.964c-0.012,0-0.024,0-0.036,0c-5.007-0.01-16.414-2.023-18.067-2.963v-0.308l3.818,0.313  c0.076,0.006,0.151,0.01,0.227,0.01c0.511,0,0.999-0.144,1.395-0.412c0.48-0.328,0.77-0.799,0.813-1.328  c0.087-1.059-0.863-2.004-2.122-2.106l-4.131-0.309V30.4c0-0.276-0.224-0.5-0.5-0.5s-0.5,0.224-0.5,0.5v5.483  c0,0.134,0.054,0.263,0.148,0.356c1.341,1.32,14.409,3.348,18.917,3.355c0.011,0,0.022,0,0.033,0c4.644,0,17.173-1.936,18.687-3.348  c0.102-0.094,0.158-0.227,0.158-0.365V30.4C43.066,30.124,42.843,29.9,42.566,29.9z M10.188,32.634  c0.798,0.065,1.407,0.607,1.357,1.208c-0.022,0.273-0.183,0.525-0.452,0.708c-0.298,0.202-0.68,0.3-1.084,0.263l-3.887-0.32V32.33  L10.188,32.634z M42.042,34.486l-3.938,0.324c-0.402,0.039-0.787-0.059-1.084-0.262c-0.271-0.183-0.431-0.435-0.453-0.708  c-0.049-0.601,0.561-1.143,1.354-1.208l4.146-0.311v2.461L42.042,34.486z"/>
<path fill="#000000" d="M13.139,14.428c0,0.155,0.071,0.301,0.194,0.396c0.927,0.716,3.85,0.907,5.431,0.907c0,0,0,0,0.001,0  c1.825,0,4.105-0.186,4.602-1.073c0.051-0.092,0.072-0.196,0.061-0.301c-0.135-1.177-0.707-1.972-1.004-2.314  c0.001-0.011,0.002-0.021,0.003-0.032h2.312c0.276,0,0.499-0.224,0.499-0.5c0-0.276-0.223-0.5-0.499-0.5h-2.332  c-0.309-1.871-2.024-3.312-4.105-3.312c-2.081,0-3.797,1.441-4.105,3.312h-2.333c-0.276,0-0.5,0.224-0.5,0.5  c0,0.276,0.224,0.5,0.5,0.5h2.264C13.789,12.352,13.139,13.174,13.139,14.428z"/>
<path fill="#000000" d="M26.674,37.527c0.654,0,1.184-0.448,1.184-1v-1.715c0-0.553-0.528-1-1.184-1h-5.16  c-0.654,0-1.184,0.447-1.184,1v1.715c0,0.552,0.529,1,1.184,1H26.674z"/>
</svg>