<svg xmlns="http://www.w3.org/2000/svg" xmlns:xlink="http://www.w3.org/1999/xlink" version="1.1" id="Layer_1" x="0px" y="0px" width="100px" height="100px" viewBox="0 0 100 100" enable-background="new 0 0 100 100" xml:space="preserve">
<path fill="#000000" d="M50.686,61.145l3.398-0.006l-0.267,1.36c-0.002,0.003-0.001,0.069-0.002,0.07l-0.421,1.979l-0.816,2.359  c-0.81-0.223-1.658-0.334-2.537-0.332c-5.278,0.01-9.565,4.32-9.556,9.6c0.009,5.278,4.313,9.565,9.592,9.556  c5.279-0.011,9.565-4.313,9.557-9.592c-0.008-3.923-2.387-7.296-5.774-8.767l0.469-1.346l7.499,7.736l1.102,3.585  c0.297,0.965,1.189,1.581,2.148,1.57c0.208-0.003,0.42-0.035,0.629-0.099c0.627-0.192,1.106-0.641,1.361-1.193l0.834-0.063  c0.681,4.625,4.68,8.182,9.488,8.172c5.278-0.009,9.565-4.314,9.556-9.594c-0.01-5.278-4.313-9.57-9.591-9.561  c-1.399,0.003-2.729,0.3-3.927,0.843l-2.591-4.798l0.084-0.29l1.069-1.047c0.147-0.146,0.27-0.308,0.367-0.479  c0.712-1.107,0.729-2.581-0.078-3.724l-5.946-8.438c-1.061-1.504-3.14-1.865-4.643-0.804c-0.117,0.081-0.227,0.17-0.328,0.264  c-0.127,0.09-0.246,0.195-0.354,0.315l-7.771,8.605c-0.774,0.856-0.756,2.153,0.009,2.988l-2.563,0.005  c-0.375,0-0.679,0.189-0.677,0.564C50.006,60.958,50.31,61.146,50.686,61.145z M58.051,76.143c0.008,4.405-3.57,7.997-7.977,8.005  c-4.406,0.009-7.998-3.57-8.006-7.976c-0.009-4.405,3.569-7.998,7.976-8.006c0.695-0.002,1.37,0.087,2.014,0.254l-2.639,7.572  c-0.123,0.354,0.063,0.739,0.417,0.862c0.074,0.027,0.149,0.039,0.223,0.039c0.281,0,0.544-0.176,0.641-0.455l2.638-7.567  C56.106,70.123,58.044,72.907,58.051,76.143z M77.356,68.173c4.408-0.009,7.998,3.569,8.007,7.977  c0.008,4.405-3.57,7.997-7.978,8.006c-3.976,0.007-7.287-2.905-7.902-6.711l7.938-0.604c0.229-0.017,0.436-0.149,0.545-0.351  c0.111-0.202,0.111-0.446,0.002-0.647l-3.787-7.003C75.154,68.414,76.229,68.174,77.356,68.173z M76.277,75.567l-6.896,0.523  c0.025-2.757,1.454-5.186,3.607-6.605L76.277,75.567z M72.285,68.092c-2.67,1.705-4.412,4.694-4.405,8.09c0,0.01,0,0.021,0,0.029  l-0.649,0.047c-0.014-0.071-0.032-0.145-0.054-0.215l-0.104-0.337l3.243-11.198L72.285,68.092z M66.317,73.247l-1.512-4.917  l4.125-4.045L66.317,73.247z M55.587,60.672c0.004-0.02,0.007-0.034,0.009-0.051c0.349-0.118,0.673-0.323,0.938-0.615l5.42-6.002  l4.543,6.445l-1.256,1.232l-9.92,0.018L55.587,60.672z M55.027,63.389l8.487-0.017l-2.785,2.731  c-0.594,0.582-0.813,1.446-0.569,2.24l0.77,2.505l-6.141-6.295L55.027,63.389z"/>
<circle fill="#000000" cx="59.417" cy="43.318" r="3.555"/>
<path fill="#000000" d="M93.726,68.888c0.075-0.831-0.328-1.844-1.139-2.654c-0.81-0.81-1.82-1.212-2.652-1.138  c-0.075,0.831,0.327,1.842,1.138,2.652C91.882,68.559,92.896,68.96,93.726,68.888z"/>
<path fill="#000000" d="M97.537,67.748c0.81-0.811,1.213-1.821,1.138-2.652c-0.83-0.074-1.844,0.328-2.653,1.138  c-0.811,0.811-1.213,1.823-1.138,2.654C95.716,68.96,96.727,68.559,97.537,67.748z"/>
<path fill="#000000" d="M93.726,73.034c0.075-0.831-0.328-1.842-1.139-2.652c-0.81-0.811-1.82-1.213-2.652-1.138  c-0.075,0.829,0.327,1.842,1.138,2.652C91.882,72.707,92.896,73.108,93.726,73.034z"/>
<path fill="#000000" d="M94.884,73.034c0.832,0.074,1.843-0.327,2.653-1.138s1.213-1.821,1.138-2.652  c-0.83-0.075-1.844,0.327-2.653,1.138C95.211,71.192,94.809,72.203,94.884,73.034z"/>
<path fill="#000000" d="M100,75.396l-0.002-1.426c-1.833,0.002-3.666,0.003-5.499,0.005v-7.002c0.836-0.821,1.385-2.207,1.385-3.777  c0-1.689-0.636-3.164-1.58-3.954c-0.944,0.79-1.58,2.265-1.58,3.954c0,1.57,0.552,2.956,1.387,3.777v7.003  c-2.229,0.002-4.458,0.004-6.687,0.006l0.001,1.426C91.616,75.404,95.808,75.4,100,75.396z"/>
<path fill="#000000" d="M1.563,73.97l-0.002,1.426c7.771,0.012,7.667,0.018,15.342,0.018s15.355-0.006,23.149-0.018l-0.002-1.426  c-5.079,0.008-9.28,0.013-13.18,0.016V60.113c2.238-0.796,4.24-2.221,5.861-4.101c1.282,0.601,2.707,0.946,4.216,0.946  c5.494,0,9.946-4.454,9.946-9.947c0-3.063-1.385-5.798-3.56-7.622c2.174-1.825,3.559-4.561,3.559-7.622  c0-5.494-4.452-9.948-9.947-9.948c-0.201,0-0.397,0.019-0.598,0.031C34.373,15.434,29.15,10.84,22.996,10.84  c-7.85,0-14.211,7.459-14.211,16.664c0,0.024,0.002,0.05,0.002,0.073C3.842,28.152,0,32.352,0,37.452  c0,4.142,2.531,7.688,6.132,9.186c-0.612,1.291-0.964,2.728-0.964,4.25c0,5.494,4.454,9.946,9.947,9.946  c1.23,0,2.401-0.232,3.489-0.641v13.794C13.573,73.985,8.348,73.98,1.563,73.97z"/>
<rect x="1.563" y="87.734" fill="#000000" width="98.437" height="1.426"/>
</svg>