<?xml version="1.0" encoding="utf-8"?>
<!-- Generator: Adobe Illustrator 16.0.0, SVG Export Plug-In . SVG Version: 6.00 Build 0)  -->
<!DOCTYPE svg PUBLIC "-//W3C//DTD SVG 1.1//EN" "http://www.w3.org/Graphics/SVG/1.1/DTD/svg11.dtd">
<svg version="1.1" id="Layer_1" xmlns="http://www.w3.org/2000/svg" xmlns:xlink="http://www.w3.org/1999/xlink" x="0px" y="0px"
	 width="100px" height="54.509px" viewBox="0 23.057 100 54.509" enable-background="new 0 23.057 100 54.509" xml:space="preserve"
	>
<g>
	<path d="M41.612,74.281v-3.32c-2.225-0.104-4.383-0.77-5.646-1.503l0.997-4.091c1.395,0.805,3.354,1.539,5.513,1.539
		c1.927,0,3.221-0.805,3.221-2.167c0-1.328-1.063-2.169-3.554-3.042c-3.554-1.26-5.978-3.006-5.978-6.396
		c0-3.111,2.059-5.523,5.612-6.223V45.76h3.254v3.074c2.191,0.071,3.686,0.595,4.848,1.154l-0.996,3.95
		c-0.832-0.42-2.392-1.225-4.784-1.225c-2.159,0-2.856,1.016-2.856,1.991c0,1.12,1.162,1.889,4.018,2.973
		c3.952,1.47,5.514,3.392,5.514,6.571c0,3.111-2.061,5.768-5.879,6.432v3.602H41.612L41.612,74.281z"/>
</g>
<path d="M52.914,77.525c4.619-3.646,7.553-9.855,7.553-17.031c0-11.292-7.562-20.448-16.884-20.448
	c-9.325,0-16.882,9.156-16.882,20.448c0,7.173,2.908,13.363,7.522,17.013l0.046,0.06H0V35.546l0,0h87.66v42.021H52.859
	L52.914,77.525z M81.225,71.13v-9.485h-2.709v6.775H64.963v2.71H81.225L81.225,71.13z M22.956,71.13v-2.71H9.405v-6.775H6.694v9.485
	H22.956L22.956,71.13z M81.225,51.482v-9.484H64.963v2.708h13.553v6.776H81.225L81.225,51.482z M9.405,51.482v-6.776h13.551v-2.709
	H6.694v9.485H9.405L9.405,51.482z"/>
<polygon points="94.105,70.281 91.115,70.281 91.115,31.999 9.979,31.999 9.979,29.007 94.105,29.007 "/>
<polygon points="100,63.197 97.009,63.197 97.009,26.049 18.367,26.049 18.367,23.057 100,23.057 "/>
</svg>
