<svg xmlns="http://www.w3.org/2000/svg" xmlns:xlink="http://www.w3.org/1999/xlink" version="1.1" id="Layer_1" x="0px" y="0px" width="100px" height="100px" viewBox="0 0 100 100" enable-background="new 0 0 100 100" xml:space="preserve">
<path d="M96.84,50.914H71h-4.803c-0.151-0.736-0.323-1.462-0.537-2.165c-2.16-7.119-7.41-10.28-13.73-10.8v-9.687  c0-0.065-0.013-0.127-0.019-0.19h5.544c0.963,0,1.745-0.781,1.745-1.745s-0.782-1.745-1.745-1.745H42.534  c-0.964,0-1.745,0.781-1.745,1.745s0.781,1.745,1.745,1.745h5.544c-0.006,0.063-0.02,0.125-0.02,0.19v9.687  c-6.319,0.521-11.57,3.682-13.73,10.8c-0.213,0.702-0.385,1.428-0.536,2.165H29.41H3.57c-1.062,0-1.923,0.86-1.923,1.923  c0,1.062,0.861,1.923,1.923,1.923h12.242c-2.655,0.971-4.56,3.514-4.56,6.502c0,3.82,3.108,6.928,6.929,6.928  s6.928-3.107,6.928-6.928c0-2.988-1.904-5.531-4.56-6.502h8.86h3.904c-0.021,0.414-0.047,0.828-0.047,1.25  c0,1.461,0.123,2.885,0.356,4.26c1.588,9.373,8.314,15.148,16.37,15.148c8.084,0,14.827-5.822,16.387-15.244  c0.223-1.346,0.34-2.738,0.34-4.164c0-0.422-0.024-0.836-0.045-1.25H71h8.86c-2.655,0.971-4.56,3.514-4.56,6.502  c0,3.82,3.107,6.928,6.928,6.928s6.929-3.107,6.929-6.928c0-2.988-1.904-5.531-4.56-6.502H96.84c1.062,0,1.923-0.861,1.923-1.923  C98.763,51.774,97.901,50.914,96.84,50.914z M22.03,61.262c0,2.122-1.727,3.849-3.849,3.849s-3.85-1.727-3.85-3.849  c0-2.123,1.728-3.85,3.85-3.85S22.03,59.139,22.03,61.262z M48.474,58.691H37.055c-4.733-4.103,0-13.097,0-13.097h11.419V58.691z   M62.935,58.691H51.514V45.594h11.421C62.935,45.594,67.668,54.589,62.935,58.691z M86.078,61.262c0,2.122-1.728,3.849-3.85,3.849  s-3.849-1.727-3.849-3.849c0-2.123,1.727-3.85,3.849-3.85S86.078,59.139,86.078,61.262z"/>
</svg>