<?xml version="1.0" encoding="utf-8"?>
<!-- Generator: Adobe Illustrator 16.0.4, SVG Export Plug-In . SVG Version: 6.00 Build 0)  -->
<!DOCTYPE svg PUBLIC "-//W3C//DTD SVG 1.1//EN" "http://www.w3.org/Graphics/SVG/1.1/DTD/svg11.dtd">
<svg version="1.1" id="Layer_1" xmlns="http://www.w3.org/2000/svg" xmlns:xlink="http://www.w3.org/1999/xlink" x="0px" y="0px"
	 width="112px" height="112px" viewBox="-3.715 -5.5 112 112" enable-background="new -3.715 -5.5 112 112" xml:space="preserve">
<g>
	<ellipse cx="92.294" cy="37.455" rx="4.304" ry="4.486"/>
	<path d="M96.838,49.041l1.611,0.003l3.293,12.089c0.253,0.928,1.24,1.438,2.2,1.146c0.968-0.289,1.577-1.176,1.252-2.336
		l-3.389-12.4c-1.354-4.959-5.303-4.805-5.303-4.805h-8.417c0,0-3.947-0.154-5.304,4.805l-3.391,12.401
		c-0.322,1.16,0.287,2.047,1.253,2.337c0.964,0.29,1.948-0.221,2.199-1.148l3.297-12.088l1.607-0.002l-4.401,16.127h17.896
		L96.838,49.041z"/>
	<path d="M96.599,21.829l0.031-5.746C96.631,8.593,90.832,2.5,83.704,2.5H21.042c-7.128,0-12.926,6.093-12.926,13.583v14.035h8.669
		V16.083c0-2.466,1.911-4.474,4.257-4.474h62.662c2.347,0,4.255,2.007,4.255,4.474v5.746h-3.316l7.65,8.289l7.651-8.289H96.599z"/>
	<path d="M87.96,68.587v16.33c0,2.467-1.909,4.474-4.256,4.474H21.042c-2.347,0-4.257-2.007-4.257-4.474v-8.041h3.235l-7.651-8.289
		l-7.651,8.289h3.399v8.041c0,7.489,5.799,13.583,12.926,13.583h62.662c7.129,0,12.926-6.094,12.926-13.583v-16.33H87.96z"/>
	<path d="M13.739,36.661c-0.242,0.549-0.772,0.932-1.386,0.932c-0.617,0-1.145-0.383-1.388-0.932H8.168
		c-0.046,0.258-0.072,0.521-0.072,0.795c0,2.476,1.915,4.483,4.272,4.483c2.36,0,4.272-2.008,4.272-4.483
		c0-0.273-0.026-0.537-0.071-0.795H13.739z"/>
	<path d="M10.869,35.602c0.168-0.696,0.766-1.215,1.483-1.215c0.715,0,1.318,0.519,1.48,1.215h2.424
		c-0.672-1.551-2.159-2.632-3.888-2.632c-1.728,0-3.215,1.081-3.888,2.632H10.869z"/>
	<path d="M12.362,47.893c1.541,0,2.448-0.592,2.481-5.069c-1.547,0-3.367,0-4.895,0C9.984,47.301,10.812,47.893,12.362,47.893z"/>
	<path d="M18.18,49.938h1.562c0,0,0,11.28,0,12.54c0,1.086,0.836,1.969,1.864,1.969c1.034,0,1.848-0.883,1.848-1.969
		c0-1.083,0-12.292,0-13.909c0-3.174-2.475-5.746-5.494-5.746c-0.348,0-1.052,0-1.933,0c0,4.37-1.214,6.22-3.003,6.22v5.055
		c0.527,0.238,0.901,0.79,0.901,1.432c0,0.857-0.655,1.566-1.473,1.566c-0.819,0-1.473-0.684-1.473-1.547
		c0-0.645,0.368-1.192,0.896-1.43v-5.057c-1.88,0-3.038-2.019-3.038-6.239c-0.843,0-1.51,0-1.838,0
		c-3.023,0-5.717,2.571-5.717,5.746c0,1.617,0,12.826,0,13.909c0,1.086,0.809,1.969,1.843,1.969c1.031,0,1.87-0.883,1.87-1.969
		c0-1.26,0-12.54,0-12.54h1.546v15.231H18.18V49.938z"/>
</g>
<g>
	<path d="M43.467,42.884c-0.237-0.24-0.553-0.361-0.865-0.361c-0.313,0-0.628,0.121-0.867,0.361l-1.238,1.241l0,0l-1.239,1.241
		c-0.478,0.479-0.478,1.257,0.001,1.738c0.478,0.478,1.255,0.478,1.733,0l0.973-0.978l1.504-1.504
		C43.946,44.141,43.946,43.363,43.467,42.884z M43.205,44.357l-1.24,1.241l-1.206-1.208l1.24-1.242
		c0.161-0.16,0.375-0.249,0.603-0.249s0.441,0.089,0.604,0.249C43.537,43.48,43.537,44.024,43.205,44.357z"/>
	<path d="M37.674,39.455c-0.339,0-0.646,0.136-0.867,0.36c-0.222,0.22-0.358,0.528-0.358,0.866v1.757l0,0v1.756
		c-0.001,0.677,0.548,1.228,1.226,1.228c0.676,0,1.225-0.549,1.225-1.228v-1.383v-2.13C38.899,40.004,38.35,39.455,37.674,39.455z
		 M38.525,40.682v1.757h-1.705l0-1.757c0-0.227,0.087-0.442,0.249-0.603c0.162-0.163,0.375-0.25,0.604-0.25
		C38.143,39.829,38.525,40.211,38.525,40.682z"/>
	<path d="M38.836,37.344c-0.241,0.241-0.36,0.555-0.36,0.869c0,0.315,0.119,0.629,0.36,0.87l1.237,1.241l0,0l1.239,1.243
		c0.478,0.479,1.254,0.479,1.732-0.001c0.478-0.479,0.478-1.258,0-1.738l-0.975-0.976l-1.501-1.506
		C40.09,36.864,39.314,36.864,38.836,37.344z M40.305,37.607l1.238,1.243l-1.206,1.208l-1.238-1.242
		c-0.162-0.16-0.25-0.375-0.25-0.604c0-0.229,0.088-0.442,0.25-0.605C39.431,37.275,39.972,37.275,40.305,37.607z"/>
	<g>
		<path d="M42.676,30.008c0.002,0,0.002,0,0.002,0h0.352c0.1,0,0.183-0.081,0.183-0.182v-3.143c0-0.1-0.083-0.183-0.183-0.183
			h-6.281c-0.099,0-0.182,0.083-0.182,0.183v3.143c0,0.101,0.083,0.182,0.182,0.182h2.505h0.775H42.676z"/>
		<path d="M46.234,35.846c0,0-0.452-1.614-1.81-2.687c-0.342-0.27-0.621-0.51-0.849-0.723l0.003,0.001
			c-0.007-0.006-0.016-0.014-0.023-0.021c-0.109-0.104-0.207-0.199-0.296-0.29c-0.464-0.539-0.631-1.161-0.631-1.161
			c-0.025-0.096-0.129-0.176-0.228-0.176h-0.505h-1.85h-0.14h0.007h-2.38c-0.099,0-0.202,0.083-0.227,0.179
			c0,0-0.24,0.899-0.951,1.471c-0.716,0.574-2.859,1.719-2.859,3.867v11.703v0.362c0,0,0,2.11,2.499,2.11h8.247
			c0.1,0,0.264,0.004,0.362,0.015c0,0,1.679,0.129,1.679-2.592V36.204C46.283,36.104,46.26,35.943,46.234,35.846z M44.461,47.037
			c0,0.099-0.031,0.256-0.072,0.347l-0.488,0.49c-0.09,0.04-0.246,0.074-0.347,0.074h-7.026c-0.101,0-0.256-0.034-0.349-0.074
			l-0.483-0.49c-0.043-0.091-0.075-0.248-0.075-0.347V36.658c0-0.101,0.031-0.257,0.075-0.348l0.483-0.488
			c0.093-0.042,0.248-0.075,0.349-0.075h7.026c0.101,0,0.257,0.033,0.347,0.075l0.486,0.488c0.043,0.091,0.074,0.247,0.074,0.348
			V47.037z"/>
	</g>
</g>
<g>
	<polygon fill="#231F20" points="62.473,26.5 62.473,28.901 64.269,28.901 65.464,30.1 68.458,30.1 68.458,26.5 	"/>
	<polygon fill="#231F20" points="61.871,29.5 64.269,29.5 65.464,30.701 69.055,30.701 69.055,38.5 68.458,39.102 62.473,39.102 
		61.871,38.5 	"/>
	<polygon fill="#231F20" points="62.473,39.7 68.458,39.7 68.458,48.102 59.479,50.5 58.283,45.7 62.473,44.5 	"/>
	<rect x="62.473" y="30.1" fill="#FFFFFF" width="0.597" height="0.601"/>
	<polygon fill="#FFFFFF" points="63.07,37.301 63.07,37.9 62.473,37.9 62.473,31.3 63.07,31.3 	"/>
</g>
<g id="Your_Icon">
	<path d="M33.409,74.5c-0.819,0-1.485-0.667-1.485-1.488V59.487c0-0.822,0.666-1.487,1.485-1.487c0.82,0,1.486,0.665,1.486,1.487
		v13.524C34.895,73.833,34.229,74.5,33.409,74.5z"/>
	<path d="M47.272,74.5c-0.82,0-1.484-0.667-1.484-1.488V59.487c0-0.822,0.664-1.487,1.484-1.487c0.821,0,1.486,0.665,1.486,1.487
		v13.524C48.758,73.833,48.093,74.5,47.272,74.5z"/>
	<path d="M49.994,72.204c-0.513,0-0.928-0.416-0.928-0.929v-9.432c0-0.513,0.415-0.929,0.928-0.929c0.514,0,0.929,0.416,0.929,0.929
		v9.432C50.923,71.788,50.508,72.204,49.994,72.204z"/>
	<path d="M30.698,72.204c-0.513,0-0.927-0.416-0.927-0.929v-9.432c0-0.513,0.415-0.928,0.927-0.928c0.513,0,0.928,0.415,0.928,0.928
		v9.432C31.627,71.788,31.212,72.204,30.698,72.204z"/>
	<path d="M29.213,69.847c-0.512,0-0.927-0.415-0.927-0.93v-4.714c0-0.516,0.416-0.932,0.927-0.932c0.514,0,0.929,0.416,0.929,0.932
		v4.714C30.142,69.432,29.726,69.847,29.213,69.847z"/>
	<path d="M51.357,69.847c-0.514,0-0.93-0.415-0.93-0.93v-4.714c0-0.516,0.416-0.932,0.93-0.932c0.513,0,0.929,0.416,0.929,0.932
		v4.714C52.285,69.432,51.869,69.847,51.357,69.847z"/>
	<path d="M46.405,68.421H33.781c-1.024,0-1.856-0.833-1.856-1.861s0.832-1.86,1.856-1.86h12.624c1.027,0,1.858,0.832,1.858,1.86
		S47.432,68.421,46.405,68.421z"/>
</g>
<path d="M72.996,62.131c-0.402-1.003-1.2-1.847-2.309-2.37c-0.979-0.462-2.032-0.516-2.992-0.234
	c-0.957,0.282-1.82,1.051-2.413,1.938c-0.594-0.888-1.453-1.656-2.413-1.938c-0.957-0.281-2.014-0.228-2.992,0.234
	c-1.106,0.523-1.907,1.367-2.306,2.37c-0.4,1-0.401,2.165,0.102,3.321c1.076,2.479,7.575,8.29,7.609,8.389
	c0.034-0.099,6.535-5.91,7.608-8.389C73.395,64.295,73.394,63.131,72.996,62.131z"/>
</svg>
