<svg xmlns="http://www.w3.org/2000/svg" xmlns:xlink="http://www.w3.org/1999/xlink" version="1.1" id="Capa_19" x="0px" y="0px" width="100px" height="100px" viewBox="0 0 100 100" enable-background="new 0 0 100 100" xml:space="preserve">
<path d="M48.353,10.895c2.501-2.472,2.526-6.499,0.048-9.005c-2.47-2.498-6.497-2.524-9.002-0.052  c-2.505,2.476-2.528,6.506-0.059,9.007C41.815,13.345,45.847,13.371,48.353,10.895z M45.736,18.396  c-3.107,3.07-3.137,8.07-0.073,11.172c3.07,3.102,8.07,3.134,11.18,0.063c3.102-3.066,3.134-8.062,0.062-11.171  C53.839,15.362,48.845,15.329,45.736,18.396z M68.87,49.219c0.875-1.569,0.359-3.535-1.171-4.475l-6.246-3.838l-0.706,7.719  l0.727,0.138l-5.364,9.631l0.142-9.398l-1.915-0.059l-0.171-12.553c-0.028-0.03-0.056-0.058-0.087-0.087l-5.539-1.614  c0.201,0.448,0.319,0.929,0.331,1.432l-0.669,14.779l-5.559,0.11l0.089,5.61l-4.308-7.537l3.252-2.393l-0.164-8.175l-9.447,6.95  c-1.365,1.004-1.761,2.877-0.921,4.351l7.421,12.984l4.191-2.392l0.011,1.87c0.001,0.286,0.028,0.565,0.065,0.841l0.866,16.05  L44.154,100l8.351-0.18l-0.456-20.887l-0.006-0.136l-0.392-7.235l2.576,6.814l0.472,21.46l8.354-0.184l-0.487-22.174  c-0.013-0.462-0.105-0.951-0.269-1.383L56.118,59.74l-0.004-0.611l5.521,3.078L68.87,49.219z M37.778,34.135l-0.865-10.418  l2.727-1.941l0.05,10.128c0.002,0.707,0.161,1.375,0.431,1.981L40.09,33.91l0.173,0.232c0.254,0.49,0.576,0.936,0.975,1.313  l1.229,1.657l0.215,12.828l4.677-0.102l0.534-13.71c-0.014-0.57-0.198-1.104-0.537-1.562l-1.181-1.595l8.986,2.619l0.021,12.238  l4.708,0.154l0.775-14.339c0.035-1.242-0.769-2.347-1.961-2.692l-1.371-0.4c-3.01,2.78-7.437,3.105-10.781,1.006  c-0.251-0.158-0.496-0.329-0.735-0.512c-0.028-0.021-0.058-0.04-0.085-0.062v0.001c-0.275-0.216-0.54-0.45-0.792-0.705  c-3.214-3.256-3.405-8.362-0.596-11.848v-0.001c0.093-0.117,0.198-0.229,0.296-0.343c0.126-0.14,0.248-0.283,0.383-0.417  c0.171-0.169,0.354-0.321,0.535-0.473c0.147-0.124,0.298-0.24,0.45-0.353c0.084-0.061,0.171-0.121,0.257-0.18  c0.136-0.092,0.271-0.184,0.409-0.268c0.174-0.104,0.349-0.201,0.527-0.291c0.079-0.042,0.155-0.083,0.234-0.122  c0.237-0.114,0.478-0.215,0.722-0.307c2.679-1.008,5.741-0.682,8.162,0.979l1.002-0.156c0.689-0.108,1.287-0.542,1.604-1.165  l4.661-10.266l-2.978-1.516l-5.06,8.812l-10.54,1.65c-0.154-0.015-0.311-0.026-0.471-0.024c-0.854,0.004-1.642,0.245-2.343,0.63  l-0.004-0.007H42.19l-0.06,0.042c-0.29,0.166-0.56,0.357-0.808,0.575l-8.003,5.692c-0.658,0.468-1.003,1.264-0.896,2.062  l2.06,11.583L37.778,34.135z"/>
</svg>